<svg xmlns="http://www.w3.org/2000/svg" width="64" height="64" viewBox="0 0 24 24" fill="none" stroke="#00d4ff" stroke-width="1.5" stroke-linecap="round" stroke-linejoin="round">
  <path d="m21.64 3.64-1.28-1.28a1.21 1.21 0 0 0-1.72 0L2.36 18.64a1.21 1.21 0 0 0 0 1.72l1.28 1.28a1.21 1.21 0 0 0 1.72 0L21.64 5.36a1.21 1.21 0 0 0 0-1.72Z"/>
  <path d="m14 7 3 3"/>
  <line x1="11" y1="2" x2="11" y2="2.01" />
  <line x1="7" y1="4" x2="7" y2="4.01" />
  <line x1="16" y1="3" x2="16" y2="3.01" />
  <line x1="4" y1="8" x2="4" y2="8.01" />
  <line x1="18" y1="20" x2="18" y2="20.01" />
</svg>
